<svg t="1747216981427" class="icon" viewBox="0 0 1024 1024" version="1.1" xmlns="http://www.w3.org/2000/svg" p-id="29342" width="32" height="32"><path d="M512 0c283.2128 0 512 228.8128 512 512 0 283.2128-228.8128 512-512 512C228.7872 1024 0 795.1872 0 512 0 228.7872 228.8128 0 512 0z m107.4432 436.5824c-28.2624 1.9456-25.4976-12.6976-8.7552-33.9712 38.1952-49.408 109.0048-116.608 112.2048-165.632C727.2192 173.312 661.1968 153.6 593.152 153.6c-47.36 1.152-96.3072 13.9008-129.7152 25.472-114.9952 39.3472-187.0336 101.1456-232.8064 170.6496-47.36 68.736-32.64 134.7328 69.632 136.6784 77.2096-3.072 129.3312-23.936 181.8624-50.176 0.4096 0-146.048 40.5248-200.192 10.8032-5.9392-3.0976-11.904-7.3472-13.5168-19.3024 0-24.32 41.3952-49.792 65.664-57.9072v-41.6768a170.5728 170.5728 0 0 0 156.0064-23.552c2.0224 4.9152 2.9696 10.1632 2.7904 15.4368h8.3456a30.1312 30.1312 0 0 0-28.6464-33.9712c5.5808 4.2496 9.5488 7.7312 11.52 10.8288l-0.768 0.768-0.4096 0.3584c-63.6672 43.264-125.3376 23.1936-131.328 22.016l35.4304-33.5616-9.9584-24.32c70.4512-24.0128 128.512-41.344 225.2544-57.9584l-21.504-16.9984 11.136-6.5792c57.344 15.4624 95.9232 27.0336 93.952 56.3968-1.1008 5.9392-3.1232 11.648-5.9904 16.9984-17.1264 32.7936-67.2512 85.7088-87.552 108.4672-13.1328 15.0528-26.24 28.9536-35.4048 42.8544-10.3424 14.2848-15.5136 27.392-15.9232 39.3728 1.9968 96.9216 296.8832-45.568 354.9696-82.9952-84.7616 35.1232-176.7168 68.7104-276.5568 74.88z m64.4352-222.7712c2.7648 6.0672 3.7376 12.7488 2.816 19.3024 0.768-7.7056 0-14.2848-2.816-19.3024zM289.792 636.416c-6.144 6.4-13.824 12.288-23.04 17.92-9.216 5.12-17.92 8.704-26.112 10.752v29.696c16.896-4.864 30.72-12.288 41.728-22.272V819.2h29.952v-182.784h-22.528z m118.7584-3.584c-21.248 0-38.144 9.216-50.432 27.648-12.544 18.432-18.688 42.496-18.688 72.448 0 27.904 5.632 49.664 17.408 65.536 11.776 16.128 28.928 24.32 51.456 24.32 18.176 0 33.536-6.144 45.824-17.92 12.288-11.776 18.688-26.88 18.688-45.312 0-17.92-5.376-32.768-16.128-44.288-10.752-11.52-25.088-17.152-43.008-17.152-9.216 0-17.408 1.536-24.576 5.12-7.68 3.584-14.08 8.96-19.2 16.64h-1.28v-2.304c0-16.896 3.328-30.976 10.496-42.24 7.168-12.032 16.896-17.92 29.184-17.92 17.408 0 28.16 8.448 31.744 25.344h29.184c-4.608-33.28-24.832-49.92-60.672-49.92z m-1.28 89.6c11.008 0 19.712 3.328 26.368 10.24 6.144 6.656 9.472 15.616 9.472 26.88 0 11.264-3.328 20.48-9.984 27.648s-15.104 10.752-25.856 10.752c-10.496 0-18.944-3.328-25.6-9.984s-9.984-15.872-9.984-27.392c0-11.776 3.072-21.248 9.472-27.904 6.144-6.912 14.848-10.24 26.112-10.24z m146.1504-89.6c-19.712 0-35.328 5.12-46.848 15.616-10.496 9.216-15.616 20.736-15.616 34.56 0 9.216 2.048 17.152 6.144 23.552 4.352 6.656 11.008 12.032 20.224 15.616v0.512c-8.704 2.304-15.872 7.424-22.016 15.36-7.168 8.704-10.496 18.688-10.496 29.952 0 16.384 5.888 29.44 17.92 39.68 11.776 9.984 28.672 15.104 50.688 15.104 21.76 0 38.656-5.12 50.688-15.104 11.776-10.24 17.92-23.296 17.92-39.68 0-11.264-3.584-21.248-10.496-29.952-6.144-7.936-13.568-13.056-22.016-15.36v-0.512c8.96-3.584 15.616-8.96 20.224-15.616 4.096-6.4 6.144-14.336 6.144-23.552 0-13.824-5.376-25.344-15.616-34.56-11.776-10.496-27.392-15.616-46.848-15.616z m0 23.808c10.752 0 19.2 2.816 25.856 8.704 5.632 5.12 8.448 11.264 8.448 18.688 0 8.448-2.304 15.104-6.912 19.968-5.632 5.888-14.848 8.96-27.392 8.96-12.8 0-21.76-3.072-27.392-8.96-4.608-4.864-6.912-11.52-6.912-19.968 0-7.424 2.816-13.568 8.448-18.688 6.4-5.888 15.104-8.704 25.856-8.704z m0 78.592c12.8 0 22.528 3.072 29.44 9.472 6.144 5.632 9.472 13.568 9.472 23.296 0 9.216-3.328 16.384-9.728 22.016-7.168 5.632-16.896 8.704-29.184 8.704-12.544 0-22.016-2.816-28.672-8.448-6.912-5.632-10.24-13.056-10.24-22.272 0-9.728 3.072-17.664 9.728-23.552 6.656-6.144 16.384-9.216 29.184-9.216z m147.4048-102.4c-19.712 0-35.328 5.12-46.848 15.616-10.496 9.216-15.616 20.736-15.616 34.56 0 9.216 2.048 17.152 6.144 23.552 4.352 6.656 11.008 12.032 20.224 15.616v0.512c-8.704 2.304-15.872 7.424-22.016 15.36-7.168 8.704-10.496 18.688-10.496 29.952 0 16.384 5.888 29.44 17.92 39.68 11.776 9.984 28.672 15.104 50.688 15.104 21.76 0 38.656-5.12 50.688-15.104 11.776-10.24 17.92-23.296 17.92-39.68 0-11.264-3.584-21.248-10.496-29.952-6.144-7.936-13.568-13.056-22.016-15.36v-0.512c8.96-3.584 15.616-8.96 20.224-15.616 4.096-6.4 6.144-14.336 6.144-23.552 0-13.824-5.376-25.344-15.616-34.56-11.776-10.496-27.392-15.616-46.848-15.616z m0 23.808c10.752 0 19.2 2.816 25.856 8.704 5.632 5.12 8.448 11.264 8.448 18.688 0 8.448-2.304 15.104-6.912 19.968-5.632 5.888-14.848 8.96-27.392 8.96-12.8 0-21.76-3.072-27.392-8.96-4.608-4.864-6.912-11.52-6.912-19.968 0-7.424 2.816-13.568 8.448-18.688 6.4-5.888 15.104-8.704 25.856-8.704z m0 78.592c12.8 0 22.528 3.072 29.44 9.472 6.144 5.632 9.472 13.568 9.472 23.296 0 9.216-3.328 16.384-9.728 22.016-7.168 5.632-16.896 8.704-29.184 8.704-12.544 0-22.016-2.816-28.672-8.448-6.912-5.632-10.24-13.056-10.24-22.272 0-9.728 3.072-17.664 9.728-23.552 6.656-6.144 16.384-9.216 29.184-9.216z" fill="#FF7400" p-id="29343"></path></svg>