<?xml version="1.0" standalone="no"?><!DOCTYPE svg PUBLIC "-//W3C//DTD SVG 1.1//EN" "http://www.w3.org/Graphics/SVG/1.1/DTD/svg11.dtd"><svg t="1655953062272" class="icon" viewBox="0 0 1024 1024" version="1.1" xmlns="http://www.w3.org/2000/svg" p-id="24055" xmlns:xlink="http://www.w3.org/1999/xlink" width="200" height="200"><defs><style type="text/css">@font-face { font-family: feedback-iconfont; src: url("//at.alicdn.com/t/font_1031158_u69w8yhxdu.woff2?t=1630033759944") format("woff2"), url("//at.alicdn.com/t/font_1031158_u69w8yhxdu.woff?t=1630033759944") format("woff"), url("//at.alicdn.com/t/font_1031158_u69w8yhxdu.ttf?t=1630033759944") format("truetype"); }
</style></defs><path d="M950.848 512q0 119.424-58.848 220.288t-159.712 159.712-220.288 58.848q-63.424 0-124.576-18.272 33.728-53.152 44.576-93.728 5.152-19.424 30.848-120.576 11.424 22.272 41.728 38.56t65.152 16.288q69.152 0 123.424-39.136t84-107.712 29.728-154.272q0-65.152-34.016-122.272t-98.56-93.152-145.728-36q-60 0-112 16.576t-88.288 44-62.272 63.136-38.272 74.016-12.288 76.576q0 59.424 22.848 104.576t66.848 63.424q17.152 6.848 21.728-11.424 1.152-4 4.576-17.728t4.576-17.152q3.424-13.152-6.272-24.576-29.152-34.848-29.152-86.272 0-86.272 59.712-148.288t156.288-62.016q86.272 0 134.56 46.848t48.288 121.728q0 97.152-39.136 165.152t-100.288 68q-34.848 0-56-24.864t-13.152-59.712q4.576-20 15.136-53.44t17.152-58.848 6.56-43.136q0-28.576-15.424-47.424t-44-18.848q-35.424 0-60 32.576t-24.576 81.152q0 41.728 14.272 69.728l-56.576 238.848q-9.728 40-7.424 101.152-117.728-52-190.272-160.576t-72.576-241.728q0-119.424 58.848-220.288t159.712-159.712 220.288-58.848 220.288 58.848 159.712 159.712 58.848 220.288z" p-id="24056" fill="#666666"></path></svg>